<svg xmlns="http://www.w3.org/2000/svg" width="21.717" height="21.717" viewBox="0 0 21.717 21.717">
  <g id="globe" transform="translate(0 0)">
    <path id="Path_121" data-name="Path 121" d="M275.4,275.514a16.119,16.119,0,0,0,.548-3.289.214.214,0,0,0-.216-.225h-3.445a.215.215,0,0,0-.217.213v2.681a.215.215,0,0,0,.2.212,13.257,13.257,0,0,1,2.86.552A.216.216,0,0,0,275.4,275.514Z" transform="translate(-260.433 -260.366)" fill="#00ada7"/>
    <path id="Path_122" data-name="Path 122" d="M274.567,368.635a12.6,12.6,0,0,0-2.259-.441.214.214,0,0,0-.238.208v3.163a.217.217,0,0,0,.328.179,5.764,5.764,0,0,0,1.98-2.2c.094-.163.237-.444.323-.615a.208.208,0,0,0-.134-.292Z" transform="translate(-260.433 -351.896)" fill="#00ada7"/>
    <path id="Path_123" data-name="Path 123" d="M188.1,368.356a12.454,12.454,0,0,0-2.257.428.242.242,0,0,0-.124.329c.087.173.194.393.286.558a5.731,5.731,0,0,0,2,2.226.217.217,0,0,0,.328-.179v-3.164a.2.2,0,0,0-.232-.2Z" transform="translate(-178.248 -352.049)" fill="#00ada7"/>
    <path id="Path_124" data-name="Path 124" d="M163.735,272H160.29a.214.214,0,0,0-.216.225,16.156,16.156,0,0,0,.546,3.289.216.216,0,0,0,.271.145,13.2,13.2,0,0,1,2.86-.551.215.215,0,0,0,.2-.212v-2.683a.215.215,0,0,0-.217-.213Z" transform="translate(-153.866 -260.366)" fill="#00ada7"/>
    <path id="Path_125" data-name="Path 125" d="M272.328,73.505a11.431,11.431,0,0,0,2.254-.443.208.208,0,0,0,.134-.291c-.087-.173-.207-.421-.3-.586a5.653,5.653,0,0,0-2-2.23.217.217,0,0,0-.328.179V73.3a.215.215,0,0,0,.238.208Z" transform="translate(-260.452 -68.087)" fill="#00ada7"/>
    <path id="Path_126" data-name="Path 126" d="M272.287,167.73h3.445a.213.213,0,0,0,.216-.222,16.359,16.359,0,0,0-.541-3.307.216.216,0,0,0-.271-.143,13.559,13.559,0,0,1-2.864.582.213.213,0,0,0-.2.209v2.672A.213.213,0,0,0,272.287,167.73Z" transform="translate(-260.433 -157.647)" fill="#00ada7"/>
    <path id="Path_127" data-name="Path 127" d="M187.747,69.983a5.618,5.618,0,0,0-2.01,2.248c-.093.165-.2.393-.291.566a.209.209,0,0,0,.134.291,10.927,10.927,0,0,0,2.256.445.215.215,0,0,0,.238-.208V70.162a.218.218,0,0,0-.327-.179Z" transform="translate(-177.989 -68.114)" fill="#00ada7"/>
    <path id="Path_128" data-name="Path 128" d="M163.752,164.65a13.425,13.425,0,0,1-2.864-.582.216.216,0,0,0-.271.143,16.355,16.355,0,0,0-.541,3.307.213.213,0,0,0,.216.222h3.445a.213.213,0,0,0,.217-.21v-2.671A.213.213,0,0,0,163.752,164.65Z" transform="translate(-153.868 -157.657)" fill="#00ada7"/>
    <path id="Path_129" data-name="Path 129" d="M50.536,35.181a10.858,10.858,0,1,0,0,15.356,10.858,10.858,0,0,0,0-15.356ZM39.01,51.335a10.621,10.621,0,0,1-.6-.953c-.1-.179-.235-.449-.326-.636a.353.353,0,0,0-.5-.153c-.208.117-.485.277-.685.409a7.139,7.139,0,0,1-1.143-1.087,12.062,12.062,0,0,1,1.474-.89c.09-.048.134-.1.106-.2a18.169,18.169,0,0,1-.683-3.983.211.211,0,0,0-.208-.2h-2.75a.1.1,0,0,1-.1-.082,4.764,4.764,0,0,1-.041-.694,4.667,4.667,0,0,1,.042-.693.1.1,0,0,1,.1-.082h2.75a.19.19,0,0,0,.208-.176,18.067,18.067,0,0,1,.679-3.967.211.211,0,0,0-.106-.248,12.633,12.633,0,0,1-1.446-.868A8.232,8.232,0,0,1,36.9,35.72c.2.13.456.277.662.393a.382.382,0,0,0,.533-.166c.091-.188.194-.4.294-.576a10.756,10.756,0,0,1,.608-.965,8.968,8.968,0,0,1,3.865-.855,9.2,9.2,0,0,1,3.9.895,9.8,9.8,0,0,1,.582.921c.126.226.259.5.371.743A.208.208,0,0,0,48,36.2c.261-.141.543-.3.792-.467a8.307,8.307,0,0,1,1.125,1.115,11.871,11.871,0,0,1-1.409.839.211.211,0,0,0-.106.248,16.9,16.9,0,0,1,.671,3.946.21.21,0,0,0,.208.2l2.745,0a.1.1,0,0,1,.1.082,5.694,5.694,0,0,1,0,1.387.1.1,0,0,1-.1.083H49.282a.211.211,0,0,0-.208.2,17.81,17.81,0,0,1-.672,3.941.216.216,0,0,0,.106.252c.242.126.512.266.745.408s.463.295.685.453A8.373,8.373,0,0,1,48.822,50c-.118-.078-.259-.167-.38-.239-.083-.048-.237-.134-.322-.182a.33.33,0,0,0-.475.165c-.093.191-.234.465-.333.642a10.3,10.3,0,0,1-.6.947,9.337,9.337,0,0,1-7.7,0Z" transform="translate(-32 -32)" fill="#00ada7"/>
  </g>
</svg>
