<svg xmlns="http://www.w3.org/2000/svg" width="55.467" height="45.917" viewBox="0 0 55.467 45.917">
  <path id="inbox-alt-1" d="M3,26.889V37.761c0,3.2,0,4.807.624,6.031a5.721,5.721,0,0,0,2.5,2.5c1.224.624,2.826.624,6.031.624H45.344c3.2,0,4.807,0,6.031-.624a5.721,5.721,0,0,0,2.5-2.5c.624-1.224.624-2.826.624-6.031V26.889m-51.5,0H13.513a12.234,12.234,0,0,1,2.758.158,5.727,5.727,0,0,1,1.654.685,12.249,12.249,0,0,1,2.062,1.839l.359.359a12.25,12.25,0,0,0,2.062,1.839,5.729,5.729,0,0,0,1.654.685,12.236,12.236,0,0,0,2.758.158h3.86a12.236,12.236,0,0,0,2.758-.158,5.731,5.731,0,0,0,1.654-.685,12.252,12.252,0,0,0,2.062-1.839l.359-.359a12.252,12.252,0,0,1,2.062-1.839,5.731,5.731,0,0,1,1.654-.685,12.236,12.236,0,0,1,2.758-.158H54.5m-51.5,0L9.656,12.1c1.319-2.932,1.979-4.4,3.015-5.472A8.583,8.583,0,0,1,15.952,4.5C17.357,4,18.965,4,22.18,4H35.32c3.215,0,4.823,0,6.228.5a8.582,8.582,0,0,1,3.281,2.121c1.036,1.075,1.7,2.541,3.015,5.472L54.5,26.889" transform="translate(-1.017 -2.5)" fill="none" stroke="#c6d9d9" stroke-linecap="round" stroke-linejoin="round" stroke-width="3"/>
</svg>
